<?xml version="1.0" encoding="utf-8"?>
<!-- Generator: Adobe Illustrator 21.0.1, SVG Export Plug-In . SVG Version: 6.00 Build 0)  -->
<svg version="1.1" id="Layer_1" xmlns="http://www.w3.org/2000/svg" xmlns:xlink="http://www.w3.org/1999/xlink" x="0px" y="0px"
	 viewBox="0 0 756 138.1" style="enable-background:new 0 0 756 138.1;" xml:space="preserve">
<style type="text/css">
	.st0{fill:#8C1C1E;}
</style>
<title>Untitled-1</title>
<path class="st0" d="M592.2,71c-0.1,7.4-0.9,14.8-2.3,22c-1,5.4-2.1,8.5-5.2,14.7h-7.8c-6.2,0-8.8-0.7-10.6-2.8
	c-2.8-3.4-4.1-9.3-4.1-18.6c0-12.4,2-23.7,5.6-31.9c0.5-1,1.1-2.5,2-4.2h7.8C589,50.2,592.2,54.9,592.2,71 M604,68.8
	c0.3-21.9-7.2-28.9-21.1-28.9c-15.5,0-25.3,8.5-29.9,25.8c-2,7.6-3,15.4-3,23.2c0,20.4,6.4,29.4,20.8,29.4
	C592.7,118.3,603.5,101.6,604,68.8 M536.9,102.6l-10,1.2l-1.5-2.4l2.2-41.9l2.9-22.2h-5.2c-11.8,0-18.1,4.9-20.8,16.4l9.5-1.2
	l1.2,1.2c0.7,3.5,0.8,7,0.5,10.5l-2.7,53.6h3.4c8.3,0,16.6-4.6,19.3-10.5C536.1,105.8,536.6,104.3,536.9,102.6 M532.2,5.6
	c0-1.8-0.3-3.5-0.8-5.2c-0.6-0.2-1.2-0.3-1.9-0.3c-6.2,0-11.2,5.6-11.2,13c0.1,2,0.5,3.9,1.2,5.8h1C527.4,18.8,532.2,13.5,532.2,5.6
	 M500.5,44h-19.1l1.9-25l-13.5,4.5c0.2,4.9,0.2,7.3,0.2,9.8c0,2.9,0,5.2-0.2,10.6h-15.4l-0.5,9.6h15.4l-3.2,56.1v1
	c0,5.6,1.4,7.1,6.1,7.1c8.3,0,15.2-3.9,25.4-14l-0.5-1.2l-15.9,3.6l-1.2-0.5c-1-3.2-1.2-9.5-1-14l2-38h19.3L500.5,44z M425.6,47.9
	l-2.5,50.7l-23.8,8.8c-3-8.3-3.9-11.8-3.9-19.1c0.1-5.4,0.8-10.7,2.2-15.9c2.4-9.1,4.7-13.9,11.8-24.5L425.6,47.9z M446.1,102.7
	l-10.5,1.2l-1.2-1.2l2.4-43.1c0.3-8.3,1-12.3,3.4-22.1c-20,0-29.1,1.7-36.4,6.8c-12,8.5-20,26.5-20,46c0,12.3,3.2,24.2,7.3,27.1
	c1.4,0.9,3,1.3,4.6,1.2c7.4,0,13.7-3.4,25.9-14.5l1.2,0.7l-0.8,13.9h3.5c7.4,0,16.6-5.1,19.3-11
	C445.4,105.9,445.8,104.3,446.1,102.7 M371.7,54.8V49c0-3.2,0-5.9-0.2-11.7h-5.9c-6.4,0-12.3,4.1-12.3,14.4v0.8l6.9-1.2l1.2,1.2
	c0.9,3,1.3,6.2,1.2,9.3c-0.3,9.3-3,23.2-8.5,32.8c-3.5,6.4-6.2,8.8-13.5,10.3l-5.8-2.9c-1.1-3.8-1.6-7.7-1.5-11.7
	c0-3.9,0.3-7.4,0.5-11.7l2.7-41.4h-4.7c-11.7,0-17.4,4.7-19.4,15.5l9.1-1.5h1.2l0.3,5.2l-0.3,10.5l-1.4,27.4
	c-0.1,1.1-0.2,2.3-0.2,3.4c0,14.2,3.9,20,13.9,20c6.6,0,12.7-3.2,18.1-9.1c9.5-10.5,13.5-21.5,16.7-37
	C370.8,66.1,371.4,60.5,371.7,54.8 M287.5,69.5c-0.1,7.6-0.9,15.2-2.4,22.7c-1,5.6-2.2,8.8-5.4,15.2h-8.1c-6.4,0-9.1-0.7-11-2.9
	c-2.9-3.6-4.2-9.6-4.2-19.3c0-12.8,2-24.5,5.8-33c0.5-1,1.2-2.5,2-4.4h8.1C284.1,47.9,287.5,52.8,287.5,69.5 M299.7,67.1
	c0.3-22.7-7.4-29.9-21.8-29.9c-16.1,0-26.2,8.8-30.9,26.7c-2,7.8-3,15.9-3,24c0,21.1,6.6,30.4,21.5,30.4
	C288,118.3,299.2,101.1,299.7,67.1 M230.7,102.6l-9.5,1.2l-1-1.2l2.9-56c0-5.9-2.7-8.8-8.6-8.8c-9,0-15.9,4.6-27.9,18.1l-1.2-1.2
	l0.9-17.4h-3.4c-10.8,0-17.4,5.2-20.8,16.4l10.6-1.2l1,1.2l-3.2,62.9h13c-0.7-6.9-0.7-14-0.7-14l2.2-40.8l20.5-11.7l4.6,2.4
	c0.4,4.6,0.6,9.2,0.3,13.9l-2.5,51.4h3.4C221.1,117.8,229.3,111.4,230.7,102.6 M142.3,53.8c0,8.1-5.2,14.4-19.8,23.3
	c0.4-5.2,1.2-10.4,2.2-15.5c1.3-7.1,1.9-8.6,4.2-13.7h7.1C140.6,47.9,142.3,49.5,142.3,53.8 M156.8,103.7l-0.5-1l-17.4,4.1
	c-1.6,0.4-3.2,0.6-4.9,0.7c-8.1,0-12-5.9-12-17.9c0-0.8,0-2.7,0.2-5.6c16.9-8.3,22-12,28.2-19.8c2.7-3.4,3.9-8.3,3.9-12.8
	c0-9.5-5.4-14.2-16.1-14.2C128.9,37,123,41.3,119,49.5c-4.9,10.3-8.8,26.5-8.8,41.3c0,16.9,6.4,27.4,16.9,27.4
	C135.9,118.2,145.9,113.3,156.8,103.7 M71.3,32.1c0,8.6-2.7,18.3-7.1,24.5c-0.9,1.4-1.9,2.8-3,4.1l-3.7,2.4l-16.9-0.5l-1.7-1.9
	l1.9-36l1.2-9.3h12.3C66,15.4,71.3,20.6,71.3,32.1 M108.3,117.9l-14.7-7.6L62.5,67.1C75.8,56.5,80.9,50.5,84,42.3
	c1.3-3.6,2-7.4,2-11.2c0-15.7-8.6-22.7-27.9-22.7h-44l1.7,3.4l11.3,5.2l0.5,12.2l-4.1,76.9l-1.9,2.4l-10.6,4.6l-1.4,3.6h42.1
	l-1.5-3.6l-10.5-4.6l-2.2-2.4l-0.5-11.7l1.3-25L50.7,70l14.5,23.3c11.5,18.4,15,22.5,22,24.7c4,1.2,8,2,12.2,2.2l8.8,0.5
	L108.3,117.9z"/>
<rect x="729.2" y="56.1" class="st0" width="9.6" height="9.7"/>
<rect x="690" y="16.5" class="st0" width="9.6" height="9.7"/>
<rect x="660.8" y="94.8" class="st0" width="48.7" height="9.7"/>
<rect x="631.5" y="16.8" class="st0" width="48.4" height="9.7"/>
<rect x="651.2" y="75.3" class="st0" width="59.4" height="9.7"/>
<rect x="729.2" y="75.6" class="st0" width="9.6" height="9.7"/>
<rect x="690" y="36" class="st0" width="9.6" height="9.7"/>
<rect x="680.4" y="114.3" class="st0" width="9.6" height="9.7"/>
<rect x="699.6" y="114.3" class="st0" width="38.8" height="9.7"/>
<rect x="670.3" y="56" class="st0" width="48.3" height="9.7"/>
<rect x="710.6" y="36.7" class="st0" width="28" height="9.7"/>
<rect x="632" y="114.3" class="st0" width="38.7" height="9.7"/>
<rect x="636.3" y="56.1" class="st0" width="24.7" height="9.7"/>
<rect x="728.8" y="94.8" class="st0" width="9.6" height="29.1"/>
<rect x="709.5" y="17" class="st0" width="9.6" height="48.8"/>
<rect x="729.2" y="16.5" class="st0" width="9.6" height="29.9"/>
<rect x="651.5" y="36.7" class="st0" width="9.6" height="29.1"/>
<rect x="651.5" y="94.8" class="st0" width="9.6" height="29.2"/>
<rect x="709.3" y="75.3" class="st0" width="9.6" height="48.6"/>
<rect x="670.3" y="17" class="st0" width="9.6" height="42.2"/>
<rect x="631.5" y="36.4" class="st0" width="9.6" height="87.7"/>
</svg>
